<?xml version="1.0" encoding="utf-8"?>
<!-- Generator: Adobe Illustrator 27.0.0, SVG Export Plug-In . SVG Version: 6.00 Build 0)  -->
<svg version="1.1" id="Слой_1" xmlns="http://www.w3.org/2000/svg" xmlns:xlink="http://www.w3.org/1999/xlink" x="0px" y="0px"
	 viewBox="0 0 512 424.5" style="enable-background:new 0 0 512 424.5;" xml:space="preserve">
<style type="text/css">
	.st0{fill:#FFFFFF;}
	.st1{fill:#FFA31A;}
	.st2{fill:#FF8600;}
	.st3{fill:#292929;}
	.st4{fill:#FCFCFC;}
	.st5{fill:#FDFDFD;}
</style>
<g>
	<rect x="167.08" y="126.86" class="st0" width="177.39" height="121.7"/>
	<path class="st1" d="M261.94-0.06c53.54,2.71,98.78,23.98,136.66,61.42c17.84,17.63,32.35,37.78,43.68,60.17
		c1.42,2.8,2.8,4.42,6.36,4.67c7.36,0.51,14.58,2.25,21.46,5.01c23.15,9.28,35.45,26.9,38.13,51.23c2.61,23.57,3.6,47.25,2.3,70.96
		c-1.51,27.54-15.93,45.94-42.29,53.73c-2.29,0.68-3.53,1.57-4.04,3.88c-11.04,50.02-43.98,79.48-90.49,96.04
		c-24.75,8.81-50.48,12.91-76.59,14.59c-27.45,1.76-54.94,1.86-82.38-0.01c-35.86-2.45-70.83-8.85-102.93-26.12
		c-32.49-17.48-54.15-43.7-63.32-79.76c-0.71-2.79-1.39-5.59-2.08-8.39c-0.67-5.17-1.35-10.34-2.02-15.51
		c-0.01-5.15-0.03-10.3-0.04-15.46c0.01-8.04,0.1-16.09-0.02-24.13c-0.03-2.29,0.91-4.82-0.98-6.87c0-7.54,0-15.09,0-22.63
		c2.18-5.37,0.55-10.98,1.02-16.46c1.06-2.95,0.74-6.08,1.23-9.09c3.09-19.05,7.57-37.71,14.87-55.69
		c2.02-4.97,5.47-9.57,5.58-15.28c2.75-2.06,3.5-5.38,5.03-8.18c23.24-42.73,55.65-76.14,99.44-97.96
		C195.43,7.71,221.9,1.38,249.6-0.06C253.71-0.06,257.83-0.06,261.94-0.06z M418.56,221.27c0-4.12,0.1-8.25-0.04-12.36
		c-0.08-2.56-0.51-5.12-0.81-7.68c-4.36-38.1-19.26-71.5-46.11-98.9c-35.84-36.57-79.87-52.14-130.77-47.76
		c-45.64,3.92-83.03,24.04-111.44,59.85c-29.39,37.04-40.3,79.65-35.65,126.46c3.72,37.48,35.93,66.43,73.57,66.45
		c17.23,0.01,32.62-5.4,47.18-14.1c11.57-6.91,24.24-10.15,37.71-10.66c16.74-0.63,32.31,3.04,46.76,11.61
		c10.85,6.44,22.32,10.88,35.07,12.54c29.42,3.82,59.34-10.65,74.23-36.29C417.16,255.12,419.04,238.46,418.56,221.27z
		 M255.8,371.19c13.48-0.01,24.61-11.05,24.71-24.51c0.1-13.74-11.04-24.97-24.76-24.96c-13.48,0.01-24.61,11.05-24.71,24.5
		C230.94,359.92,242.13,371.2,255.8,371.19z"/>
	<path class="st2" d="M44.42,291.85c0.67,5.17,1.35,10.34,2.02,15.51c-16.52-0.79-36.5-17.52-42.24-35.57
		c-4.83-15.18-4.29-30.86-3.64-46.47c0.66-15.93,0.35-31.96,3.42-47.72c5.56-28.63,24.85-46.77,53.98-50.73
		c2.68-0.36,5.34-1.48,8.13-0.63c-0.1,5.71-3.56,10.31-5.58,15.28c-7.3,17.98-11.77,36.64-14.87,55.69
		c-0.49,3.01-0.17,6.14-1.23,9.09c-2.32,5.36-0.37,10.99-1.02,16.46c0,7.54,0,15.09,0,22.63c0.02,10.34,0.05,20.67,0.07,31.01
		C43.94,281.54,42.13,286.83,44.42,291.85z"/>
	<path class="st3" d="M418.56,221.27c0.48,17.19-1.4,33.85-10.3,49.17c-14.89,25.64-44.81,40.11-74.23,36.29
		c-12.74-1.66-24.22-6.1-35.07-12.54c-14.45-8.58-30.02-12.24-46.76-11.61c-13.47,0.51-26.14,3.75-37.71,10.66
		c-14.57,8.7-29.96,14.11-47.18,14.1c-37.64-0.02-69.85-28.97-73.57-66.45c-4.65-46.82,6.27-89.43,35.65-126.46
		c28.42-35.81,65.8-55.93,111.44-59.85c50.9-4.37,94.93,11.2,130.77,47.76c26.85,27.4,41.76,60.8,46.11,98.9
		c0.29,2.56,0.72,5.11,0.81,7.68C418.66,213.02,418.56,217.15,418.56,221.27z M255.73,248.15c15.35-0.4,28.09-5.86,38.32-16.82
		c7.07-7.58,6.92-18.87-0.19-25.97c-7.08-7.08-18.39-7.17-26.01-0.22c-8.78,8.01-15.31,7.98-24.05-0.11
		c-7.42-6.87-18.37-6.87-25.57,0c-7.37,7.04-7.87,18.27-0.86,25.9C227.77,242.25,240.81,247.86,255.73,248.15z M204.22,161.06
		c0-4.81,0.09-9.62-0.02-14.42c-0.22-10.46-8.05-18.52-18.07-18.73c-10.19-0.21-18.77,7.92-18.99,18.38
		c-0.2,9.78-0.22,19.58,0.01,29.36c0.24,10.21,8.64,18.24,18.62,18.22c10.01-0.02,18.12-8.06,18.41-18.38
		C204.33,170.68,204.22,165.87,204.22,161.06z M307.32,160.44c0,4.98-0.1,9.96,0.02,14.94c0.25,10.36,8.28,18.4,18.3,18.48
		c9.98,0.08,18.46-7.91,18.72-18.12c0.25-9.95,0.27-19.92-0.01-29.88c-0.29-10.16-8.9-18.12-18.86-17.96
		c-9.81,0.15-17.8,8.05-18.14,18.11C307.2,150.82,307.33,155.64,307.32,160.44z"/>
	<path class="st3" d="M255.8,371.19c-13.67,0.01-24.86-11.27-24.77-24.97c0.1-13.45,11.23-24.49,24.71-24.5
		c13.72-0.01,24.86,11.22,24.76,24.96C280.41,360.13,269.28,371.17,255.8,371.19z"/>
	<path class="st1" d="M43.45,276.4c-0.02-10.34-0.05-20.67-0.07-31.01c1.9,2.06,0.95,4.58,0.98,6.87
		c0.12,8.04,0.03,16.09,0.02,24.13C44.07,276.37,43.76,276.37,43.45,276.4z"/>
	<path class="st1" d="M43.38,222.76c0.65-5.47-1.29-11.1,1.02-16.46C43.93,211.78,45.57,217.39,43.38,222.76z"/>
	<path class="st1" d="M43.45,276.4c0.31-0.03,0.62-0.03,0.93-0.01c0.01,5.15,0.03,10.3,0.04,15.46
		C42.13,286.83,43.94,281.54,43.45,276.4z"/>
	<path class="st4" d="M255.73,248.15c-14.93-0.29-27.97-5.9-38.36-17.22c-7.01-7.63-6.5-18.86,0.86-25.9
		c7.2-6.88,18.16-6.88,25.57,0c8.73,8.09,15.27,8.12,24.05,0.11c7.61-6.95,18.93-6.85,26.01,0.22c7.1,7.1,7.26,18.4,0.19,25.97
		C283.82,242.29,271.09,247.75,255.73,248.15z"/>
	<path class="st5" d="M204.22,161.06c0,4.81,0.11,9.62-0.02,14.42c-0.29,10.33-8.4,18.36-18.41,18.38
		c-9.98,0.02-18.39-8.01-18.62-18.22c-0.23-9.78-0.21-19.58-0.01-29.36c0.22-10.45,8.79-18.59,18.99-18.38
		c10.01,0.2,17.84,8.27,18.07,18.73C204.31,151.44,204.22,156.25,204.22,161.06z"/>
	<path class="st5" d="M307.33,160.44c0-4.81-0.13-9.62,0.03-14.42c0.33-10.06,8.32-17.96,18.14-18.11
		c9.96-0.15,18.57,7.8,18.86,17.96c0.29,9.95,0.27,19.92,0.01,29.88c-0.26,10.21-8.74,18.2-18.72,18.12
		c-10.02-0.08-18.05-8.13-18.3-18.48C307.22,170.41,307.32,165.42,307.33,160.44z"/>
</g>
</svg>
